<?xml version="1.0" encoding="utf-8"?>
<!-- Generator: Adobe Illustrator 15.0.1, SVG Export Plug-In . SVG Version: 6.00 Build 0)  -->
<!DOCTYPE svg PUBLIC "-//W3C//DTD SVG 1.1//EN" "http://www.w3.org/Graphics/SVG/1.1/DTD/svg11.dtd">
<svg version="1.1" id="Layer_1" xmlns="http://www.w3.org/2000/svg" xmlns:xlink="http://www.w3.org/1999/xlink" x="0px" y="0px"
	 width="164.625px" height="63.5px" viewBox="0 0 63.625 24.5" enable-background="new 0 0 63.625 24.5" xml:space="preserve">
<g>

		<rect x="0.712" y="2.663" transform="matrix(0.9962 -0.0872 0.0872 0.9962 -0.942 2.8074)" fill="#FFD24F" width="61.938" height="19.057"/>
	<g>
		<g>
			<polygon fill="#231F20" points="32.276,9.519 31.088,9.519 31.088,11.598 29.009,11.598 29.009,12.786 31.088,12.786
				31.088,14.865 32.276,14.865 32.276,12.786 34.354,12.786 34.354,11.598 32.276,11.598 			"/>
			<polygon fill="#FFFFFF" points="56.733,10.707 56.733,9.519 53.764,9.519 53.764,14.865 56.733,14.865 56.733,13.677
				54.952,13.677 54.952,12.786 56.733,12.786 56.733,11.598 54.952,11.598 54.952,10.707 			"/>
			<polygon fill="#FFFFFF" points="45.316,11.598 43.534,11.598 43.534,9.519 42.347,9.519 42.347,14.865 43.534,14.865
				43.534,12.786 45.316,12.786 45.316,14.865 46.505,14.865 46.505,9.519 45.316,9.519 			"/>
			<rect x="47.692" y="9.519" fill="#FFFFFF" width="1.188" height="5.346"/>
			<polygon fill="#FFFFFF" points="49.54,9.519 49.54,10.707 50.729,10.707 50.729,14.865 51.916,14.865 51.916,10.707
				53.104,10.707 53.104,9.519 			"/>
			<polygon fill="#FFFFFF" points="39.492,13.1 38.665,9.519 38.629,9.519 37.605,9.519 37.569,9.519 36.742,13.1 35.782,9.519
				34.553,9.519 35.985,14.865 37.395,14.865 38.117,11.735 38.839,14.865 40.248,14.865 41.681,9.519 40.452,9.519 			"/>
			<path fill="#231F20" d="M9.12,10.41c0.776,0,1.434,0.497,1.679,1.188h1.233c-0.276-1.355-1.474-2.376-2.912-2.376
				c-1.64,0-2.97,1.33-2.97,2.97c0,1.641,1.331,2.97,2.97,2.97c1.438,0,2.636-1.021,2.912-2.375h-1.233
				c-0.245,0.692-0.902,1.188-1.679,1.188c-0.984,0-1.781-0.798-1.781-1.783C7.339,11.208,8.135,10.41,9.12,10.41z"/>
			<polygon fill="#231F20" points="21.951,11.491 20.922,9.553 19.576,9.553 21.358,12.905 21.358,14.865 22.546,14.865
				22.546,12.904 24.329,9.553 22.982,9.553 			"/>
			<polygon fill="#231F20" points="29.025,9.519 27.575,9.519 26.176,11.517 26.176,9.519 24.988,9.519 24.988,14.865
				26.176,14.865 26.176,12.694 27.695,14.865 29.146,14.865 27.214,12.105 			"/>
			<polygon fill="#231F20" points="16.938,9.519 15.951,13.061 14.964,9.519 12.981,9.519 12.981,14.865 14.169,14.865
				14.169,10.46 15.396,14.865 15.45,14.865 16.455,14.865 16.508,14.865 17.734,10.46 17.734,14.865 18.921,14.865 18.921,9.519
							"/>
		</g>
	</g>
</g>
</svg>
